<?xml version="1.0" encoding="UTF-8"?>
<svg xmlns="http://www.w3.org/2000/svg" version="1.1" viewBox="0 0 207.05 100">
  <!-- Generator: Adobe Illustrator 28.7.1, SVG Export Plug-In . SVG Version: 1.2.0 Build 142)  -->
  <g>
    <g id="Camada_1">
      <g id="qrXOHB.tif">
        <g>
          <path d="M23.57,67.28c0-10.64,0-21.28,0-31.92.07-.41.14-.83.22-1.24,1.02-5.44,4.1-9.24,9.2-11.34,1.33-.55,2.81-.72,4.23-1.07,10.64,0,21.28,0,31.92,0,1.11.23,2.25.37,3.32.72,6.23,2.02,10.3,7.61,10.32,14.18.03,9.81.01,19.62,0,29.43,0,3.15-.88,6.05-2.74,8.61-3.08,4.22-7.28,6.28-12.49,6.28-9.52,0-19.04,0-28.56,0-1,0-2.01-.05-2.99-.22-5.47-1-9.29-4.11-11.38-9.24-.54-1.32-.71-2.78-1.05-4.17ZM53.14,75.95s0,.02,0,.03c4.82,0,9.64.03,14.46-.02,1.2-.01,2.45-.15,3.57-.53,4.18-1.41,6.67-5.06,6.68-9.6,0-9.68,0-19.35,0-29.03,0-.78-.05-1.59-.22-2.35-1.05-4.68-4.88-7.77-9.73-7.79-9.79-.03-19.58,0-29.38-.01-1.47,0-2.89.24-4.2.89-3.83,1.9-5.78,5.01-5.78,9.3-.01,9.66,0,19.31,0,28.97,0,.65.05,1.31.14,1.96.57,4.32,4.69,8.12,9.04,8.18,5.15.08,10.29.02,15.44.02Z"/>
          <path d="M53.26,36.51c8.2.08,14.83,6.8,14.73,14.91-.11,8.19-6.78,14.78-14.88,14.7-8.2-.08-14.83-6.8-14.72-14.91.11-8.2,6.77-14.78,14.88-14.7ZM53.18,61.17c5.45,0,9.84-4.4,9.85-9.85,0-5.45-4.38-9.84-9.83-9.86-5.46-.02-9.9,4.42-9.88,9.88.02,5.46,4.42,9.84,9.86,9.84Z"/>
          <path d="M69.21,38.96c-2.04,0-3.67-1.62-3.68-3.66-.01-2.05,1.65-3.73,3.69-3.72,2.01,0,3.67,1.65,3.7,3.67.03,2.02-1.66,3.71-3.71,3.71Z"/>
        </g>
      </g>
      <g>
        <path d="M175.86,75.99h-56.21c-3.56,0-6.45-2.89-6.45-6.45v-36.46c0-3.55,2.89-6.45,6.45-6.45h56.21c3.56,0,6.45,2.89,6.45,6.45v36.46c0,3.55-2.89,6.45-6.45,6.45ZM119.64,31.65c-.79,0-1.44.65-1.44,1.44v36.46c0,.79.65,1.44,1.44,1.44h56.21c.79,0,1.44-.65,1.44-1.44v-36.46c0-.79-.65-1.44-1.44-1.44h-56.21Z"/>
        <path d="M147.75,59.32c-1.55,0-3.09-.56-4.33-1.68l-29.4-26.65,3.36-3.71,29.4,26.65c.55.5,1.38.5,1.93,0l29.4-26.64,3.36,3.71-29.4,26.65c-1.23,1.12-2.78,1.68-4.33,1.68Z"/>
      </g>
    </g>
  </g>
</svg>