<?xml version="1.0" encoding="UTF-8"?>
<svg xmlns="http://www.w3.org/2000/svg" version="1.1" viewBox="0 0 700 100">
  <defs>
    <style>
      .cls-1 {
        fill: #0049ff;
      }
    </style>
  </defs>
  <!-- Generator: Adobe Illustrator 28.7.1, SVG Export Plug-In . SVG Version: 1.2.0 Build 142)  -->
  <g>
    <g id="Camada_1">
      <g>
        <path class="cls-1" d="M341.54,49.93c0-10.1,6.29-17.82,16.34-17.82,8.39,0,13.34,5,14.06,11.48h-6.86c-.62-3.43-3.19-5.67-7.2-5.67-6.29,0-9.29,5.24-9.29,12.01s3.62,11.96,9.34,11.96c4.05,0,6.91-2.43,7.34-6h6.77c-.19,3-1.48,5.91-3.76,8.05-2.33,2.19-5.62,3.62-10.34,3.62-9.58,0-16.39-7.39-16.39-17.63Z"/>
        <path class="cls-1" d="M375.6,32.77h25.06v5.81h-18.15v7.62h15.91v5.67h-15.91v9.2h18.3v5.77h-25.21v-34.07Z"/>
        <path class="cls-1" d="M405.09,32.77h15.63c6.58,0,10.96,3.81,10.96,9.48,0,4-1.86,7.05-6.24,8.24v.14c3.14.91,4.76,2.72,5.19,6.86.48,4.81.29,8.48,1.48,9.01v.33h-6.62c-.86-.38-.95-4.19-1.24-7.86-.29-3.72-2.38-5.81-6.67-5.81h-5.58v13.67h-6.91v-34.07ZM412,47.83h7.34c3.76,0,5.62-1.95,5.62-4.67s-1.76-4.81-5.43-4.81h-7.53v9.48Z"/>
        <path class="cls-1" d="M433.87,32.77h27.4v5.81h-10.24v28.26h-6.91v-28.26h-10.24v-5.81Z"/>
        <path class="cls-1" d="M464.79,32.77h6.91v34.07h-6.91v-34.07Z"/>
        <path class="cls-1" d="M476.99,32.77h24.4v5.86h-17.49v8.2h14.82v5.91h-14.82v14.1h-6.91v-34.07Z"/>
        <path class="cls-1" d="M505.34,32.77h6.91v34.07h-6.91v-34.07Z"/>
        <path class="cls-1" d="M516.06,49.93c0-10.1,6.29-17.82,16.34-17.82,8.39,0,13.34,5,14.06,11.48h-6.86c-.62-3.43-3.19-5.67-7.2-5.67-6.29,0-9.29,5.24-9.29,12.01s3.62,11.96,9.34,11.96c4.05,0,6.91-2.43,7.34-6h6.77c-.19,3-1.48,5.91-3.76,8.05-2.33,2.19-5.62,3.62-10.34,3.62-9.58,0-16.39-7.39-16.39-17.63Z"/>
        <path class="cls-1" d="M558.56,32.77h7.15l12.01,34.07h-7.19l-2.29-7.24h-12.29l-2.24,7.24h-7l11.86-34.07ZM557.56,54.31h9.01l-3.05-9.82c-.57-1.81-1.38-5.24-1.38-5.24h-.1s-.86,3.43-1.43,5.24l-3.05,9.82Z"/>
        <path class="cls-1" d="M574.52,32.77h27.4v5.81h-10.24v28.26h-6.91v-28.26h-10.24v-5.81Z"/>
        <path class="cls-1" d="M605.44,32.77h6.91v34.07h-6.91v-34.07Z"/>
        <path class="cls-1" d="M616.16,49.88c0-10.2,6.38-17.77,16.44-17.77s16.39,7.58,16.39,17.77-6.34,17.73-16.39,17.73-16.44-7.53-16.44-17.73ZM641.94,49.88c0-6.81-3.05-12.1-9.29-12.1s-9.43,5.29-9.43,12.1,3.19,12.05,9.43,12.05,9.29-5.29,9.29-12.05Z"/>
        <path class="cls-1" d="M652.75,32.77h7l11.34,19.01c1.1,1.86,2.38,4.77,2.38,4.77h.1s-.19-3.53-.19-5.91v-17.87h6.81v34.07h-6.67l-11.63-18.82c-1.1-1.81-2.43-4.72-2.43-4.72h-.09s.19,3.57.19,5.96v17.58h-6.81v-34.07Z"/>
        <path class="cls-1" d="M19.04,32.84h7.05l4.43,16.92c.67,2.91,1.48,7.43,1.48,7.43h.09s.86-4.24,1.57-7.24l3.72-17.11h6.67l3.72,17.06c.71,3,1.57,7.29,1.57,7.29h.09s1-4.53,1.67-7.48l4.29-16.87h6.81l-9.72,34.07h-6.43l-4.15-18.25c-.57-2.48-1.19-6.05-1.19-6.05h-.1s-.52,3.57-1.1,6.05l-4.19,18.25h-6.38l-9.91-34.07Z"/>
        <path class="cls-1" d="M101.84,32.84h15.63c6.58,0,10.96,3.81,10.96,9.48,0,4-1.86,7.05-6.24,8.24v.14c3.14.91,4.77,2.72,5.19,6.86.48,4.81.29,8.48,1.48,9.01v.33h-6.62c-.86-.38-.95-4.19-1.24-7.86-.29-3.72-2.38-5.81-6.67-5.81h-5.58v13.67h-6.91v-34.07ZM108.75,47.9h7.34c3.76,0,5.62-1.95,5.62-4.67s-1.76-4.81-5.43-4.81h-7.53v9.48Z"/>
        <path class="cls-1" d="M132.85,32.84h6.91v28.3h16.01v5.77h-22.92v-34.07Z"/>
        <path class="cls-1" d="M159.49,32.84h13.29c9.1,0,14.96,7.34,14.96,17.39,0,5.53-1.86,10.39-5.43,13.39-2.53,2.1-5.81,3.29-10.1,3.29h-12.72v-34.07ZM171.73,60.96c6.48,0,9.01-3.95,9.01-10.72s-2.95-11.48-8.81-11.48h-5.53v22.2h5.34Z"/>
        <path class="cls-1" d="M202.33,32.84h27.4v5.81h-10.24v28.26h-6.91v-28.26h-10.24v-5.81Z"/>
        <path class="cls-1" d="M230.06,49.95c0-10.2,6.38-17.77,16.44-17.77s16.39,7.58,16.39,17.77-6.34,17.73-16.39,17.73-16.44-7.53-16.44-17.73ZM255.83,49.95c0-6.81-3.05-12.1-9.29-12.1s-9.43,5.29-9.43,12.1,3.19,12.05,9.43,12.05,9.29-5.29,9.29-12.05Z"/>
        <path class="cls-1" d="M266.36,55.95v-23.11h6.91v23.11c0,3.53,1.76,6,6.39,6,4.38,0,6.43-2.57,6.43-6.1v-23.01h6.91v23.11c0,7.29-4.48,11.53-13.2,11.53s-13.44-4.15-13.44-11.53Z"/>
        <path class="cls-1" d="M297.95,32.84h15.63c6.58,0,10.96,3.81,10.96,9.48,0,4-1.86,7.05-6.24,8.24v.14c3.14.91,4.76,2.72,5.19,6.86.48,4.81.29,8.48,1.48,9.01v.33h-6.62c-.86-.38-.95-4.19-1.24-7.86-.29-3.72-2.38-5.81-6.67-5.81h-5.58v13.67h-6.91v-34.07ZM304.86,47.9h7.34c3.76,0,5.62-1.95,5.62-4.67s-1.76-4.81-5.43-4.81h-7.53v9.48Z"/>
        <circle class="cls-1" cx="79.88" cy="50.16" r="18.5"/>
      </g>
    </g>
  </g>
</svg>