<?xml version="1.0" encoding="UTF-8"?>
<svg xmlns="http://www.w3.org/2000/svg" version="1.1" viewBox="0 0 122.8 100">
  <defs>
    <style>
      .cls-1 {
        fill: #f7f7f7;
      }
    </style>
  </defs>
  <!-- Generator: Adobe Illustrator 28.7.1, SVG Export Plug-In . SVG Version: 1.2.0 Build 142)  -->
  <g>
    <g id="Camada_1">
      <g>
        <path class="cls-1" d="M97.9,80.27H24.4c-4.65,0-8.43-3.78-8.43-8.43V24.17c0-4.65,3.78-8.43,8.43-8.43h73.5c4.65,0,8.43,3.78,8.43,8.43v47.67c0,4.65-3.78,8.43-8.43,8.43ZM24.4,22.29c-1.04,0-1.88.84-1.88,1.88v47.67c0,1.04.84,1.88,1.88,1.88h73.5c1.04,0,1.88-.84,1.88-1.88V24.17c0-1.04-.84-1.88-1.88-1.88H24.4Z"/>
        <path class="cls-1" d="M61.15,58.48c-2.02,0-4.05-.73-5.66-2.19L17.05,21.45l4.39-4.85,38.44,34.84c.72.65,1.81.65,2.53,0l38.44-34.84,4.39,4.85-38.44,34.84c-1.61,1.46-3.64,2.19-5.66,2.19Z"/>
      </g>
    </g>
  </g>
</svg>