<?xml version="1.0" encoding="UTF-8"?>
<svg xmlns="http://www.w3.org/2000/svg" version="1.1" viewBox="0 0 543.12 100">
  <defs>
    <style>
      .cls-1 {
        fill: #fff;
      }

      .cls-2 {
        fill: #0049ff;
      }
    </style>
  </defs>
  <!-- Generator: Adobe Illustrator 28.7.1, SVG Export Plug-In . SVG Version: 1.2.0 Build 142)  -->
  <g>
    <g id="Camada_1">
      <g>
        <g>
          <path class="cls-2" d="M30.55,51.09c0-7.03,3.63-11.49,9.22-11.49s9.15,4.43,9.15,11.49-3.47,11.49-9.18,11.49-9.18-4.5-9.18-11.49ZM44.36,51.09c0-4.66-1.35-7.77-4.59-7.77s-4.66,3.08-4.66,7.77,1.38,7.77,4.66,7.77,4.59-3.05,4.59-7.77Z"/>
          <path class="cls-2" d="M57.36,39.11h3.47l-8.99,22.96h-3.47l8.99-22.96Z"/>
          <path class="cls-2" d="M59.42,55.71h4.3c.39,2.15,2.18,3.18,4.46,3.18,2.5,0,4.08-1.8,4.08-4.14,0-2.6-1.77-4.05-4.08-4.05-1.67,0-2.95.64-3.6,1.38h-4.21l2.12-12.01h12.97v3.63h-9.92l-.83,4.75h.06c.96-.83,2.54-1.38,4.56-1.38,3.88,0,7.45,2.92,7.45,7.67s-3.69,7.8-8.51,7.8-8.44-2.57-8.86-6.84Z"/>
        </g>
        <g>
          <path class="cls-2" d="M211.63,54.19c2.77-2.19,5.79-3.73,5.79-6.56,0-2.06-1.09-3.44-3.05-3.44-2.22,0-3.54,1.61-3.6,4.47h-4.12c0-5.02,2.57-8.2,7.81-8.2,4.79,0,7.49,3.25,7.49,7.04,0,4.15-2.83,6.11-5.53,7.91-1.7,1.09-3.7,2.51-4.44,3.92h10.16v3.6h-15.82c.16-4.21,2.8-6.78,5.31-8.75Z"/>
          <path class="cls-2" d="M231.37,39.95h3.47l-9,22.99h-3.47l9-22.99Z"/>
          <path class="cls-2" d="M233.42,56.57h4.31c.39,2.15,2.19,3.18,4.47,3.18,2.51,0,4.08-1.8,4.08-4.15,0-2.6-1.77-4.05-4.08-4.05-1.67,0-2.96.64-3.6,1.38h-4.21l2.12-12.02h12.99v3.63h-9.94l-.84,4.76h.06c.96-.84,2.54-1.38,4.57-1.38,3.89,0,7.46,2.93,7.46,7.68s-3.7,7.81-8.52,7.81-8.46-2.57-8.87-6.85Z"/>
        </g>
        <g>
          <path class="cls-2" d="M293.6,54.46h4.13c.16,2.6,1.3,4.42,4.29,4.42,2.41,0,3.84-1.3,3.84-3.53,0-2.1-1.33-3.37-4-3.37h-1.33v-3.27h1.24c2.06,0,3.53-1.05,3.53-2.89,0-1.72-1.18-2.86-3.08-2.86-2.48,0-3.68,1.62-3.78,3.88h-4.13c.16-4.29,2.86-7.18,7.91-7.18,4.54,0,7.47,2.26,7.47,5.88,0,2.45-1.56,3.88-3.72,4.57v.06c2.76.67,4.42,2.45,4.42,5.46,0,4.51-3.72,6.7-8.2,6.7-5.62,0-8.51-3.11-8.58-7.88Z"/>
          <path class="cls-2" d="M319.33,39.14h3.43l-8.89,22.71h-3.43l8.89-22.71Z"/>
          <path class="cls-2" d="M321.37,55.57h4.26c.38,2.13,2.16,3.14,4.42,3.14,2.48,0,4.03-1.78,4.03-4.1,0-2.57-1.75-4-4.03-4-1.65,0-2.92.64-3.56,1.37h-4.16l2.1-11.88h12.83v3.59h-9.82l-.83,4.7h.06c.95-.83,2.51-1.37,4.51-1.37,3.84,0,7.37,2.89,7.37,7.59s-3.65,7.72-8.42,7.72-8.35-2.54-8.77-6.77Z"/>
        </g>
        <g>
          <path class="cls-2" d="M389.34,58.61h-10.52v-4.89l10.36-13.22h4.59v14.49h3.46v3.63h-3.46v4.96h-4.43v-4.96ZM382.48,54.98h6.86v-8.86h-.07l-6.79,8.76v.1Z"/>
          <path class="cls-2" d="M406.58,39.76h3.6l-9.32,23.81h-3.6l9.32-23.81Z"/>
          <path class="cls-2" d="M408.72,56.98h4.46c.4,2.23,2.26,3.3,4.63,3.3,2.6,0,4.23-1.86,4.23-4.3,0-2.7-1.83-4.2-4.23-4.2-1.73,0-3.06.67-3.73,1.43h-4.36l2.2-12.45h13.45v3.76h-10.29l-.87,4.93h.07c1-.87,2.63-1.43,4.73-1.43,4.03,0,7.73,3.03,7.73,7.96s-3.83,8.09-8.82,8.09-8.76-2.66-9.19-7.09Z"/>
        </g>
        <g>
          <path class="cls-2" d="M126.03,47.77h-5.03v-2.92c2.73-.1,5.16-1.1,5.62-3.96h3.86v22.41h-4.45v-15.52Z"/>
          <path class="cls-2" d="M141.39,40.07h3.51l-9.09,23.22h-3.51l9.09-23.22Z"/>
          <path class="cls-2" d="M143.46,56.86h4.35c.39,2.18,2.21,3.21,4.51,3.21,2.53,0,4.12-1.82,4.12-4.19,0-2.63-1.79-4.09-4.12-4.09-1.69,0-2.99.65-3.64,1.4h-4.25l2.14-12.15h13.12v3.67h-10.03l-.84,4.81h.06c.97-.84,2.57-1.4,4.61-1.4,3.93,0,7.53,2.95,7.53,7.76s-3.73,7.89-8.61,7.89-8.54-2.6-8.96-6.92Z"/>
        </g>
        <rect class="cls-2" x="452.13" y="12.63" width="79.57" height="79.57" rx="39.78" ry="39.78"/>
        <g>
          <path class="cls-1" d="M470.69,56.95h4c.36,2,2.03,2.95,4.15,2.95,2.33,0,3.79-1.67,3.79-3.85,0-2.42-1.64-3.76-3.79-3.76-1.55,0-2.74.6-3.34,1.28h-3.91l1.97-11.15h12.05v3.37h-9.22l-.78,4.41h.06c.89-.78,2.36-1.28,4.23-1.28,3.61,0,6.92,2.71,6.92,7.13s-3.43,7.25-7.9,7.25-7.84-2.39-8.23-6.35Z"/>
          <path class="cls-1" d="M495.09,41.53h3.22l-8.35,21.32h-3.22l8.35-21.32Z"/>
          <path class="cls-1" d="M497,56.95h4c.36,2,2.03,2.95,4.15,2.95,2.33,0,3.79-1.67,3.79-3.85,0-2.42-1.64-3.76-3.79-3.76-1.55,0-2.74.6-3.34,1.28h-3.91l1.97-11.15h12.05v3.37h-9.22l-.78,4.41h.06c.89-.78,2.36-1.28,4.23-1.28,3.61,0,6.92,2.71,6.92,7.13s-3.43,7.25-7.9,7.25-7.84-2.39-8.23-6.35Z"/>
        </g>
        <path class="cls-2" d="M176.49,87.83h-73.96v-36.9c0-20.44,16.63-37.06,37.06-37.06h36.9v73.96ZM107.32,83.04h64.39V18.65h-32.11c-17.8,0-32.27,14.48-32.27,32.27v32.11Z"/>
        <path class="cls-2" d="M263.44,87.83h-37.14c-20.3,0-36.82-16.52-36.82-36.82s16.66-37.14,37.14-37.14h36.82v73.96ZM226.62,18.65c-17.84,0-32.35,14.51-32.35,32.35s14.37,32.03,32.03,32.03h32.35V18.65h-32.03Z"/>
        <path class="cls-2" d="M90.65,87.83H16.69V13.87h73.96v73.96ZM21.48,83.04h64.39V18.65H21.48v64.39Z"/>
        <path class="cls-2" d="M315.4,90.86c-21.48,0-38.95-17.47-38.95-38.95s17.47-38.95,38.95-38.95h38.95v38.95c0,21.48-17.47,38.95-38.95,38.95ZM315.4,17.75c-18.84,0-34.16,15.33-34.16,34.16s15.33,34.16,34.16,34.16h0c18.84,0,34.16-15.33,34.16-34.16V17.75h-34.16Z"/>
        <path class="cls-2" d="M403.69,90.86c-21.48,0-38.95-17.47-38.95-38.95s17.47-38.95,38.95-38.95,38.95,17.47,38.95,38.95-17.47,38.95-38.95,38.95ZM403.69,17.75c-18.84,0-34.16,15.33-34.16,34.16s15.33,34.16,34.16,34.16,34.16-15.33,34.16-34.16-15.33-34.16-34.16-34.16Z"/>
      </g>
    </g>
  </g>
</svg>