<?xml version="1.0" encoding="UTF-8"?>
<svg xmlns="http://www.w3.org/2000/svg" version="1.1" viewBox="0 0 700 100">
  <defs>
    <style>
      .cls-1 {
        fill: #4182e0;
      }
    </style>
  </defs>
  <!-- Generator: Adobe Illustrator 28.7.1, SVG Export Plug-In . SVG Version: 1.2.0 Build 142)  -->
  <g>
    <g id="Camada_1">
      <g>
        <g>
          <path class="cls-1" d="M36.3,38.28h10.83c2.6,0,4.6.64,5.85,1.76,1.32,1.18,1.93,2.64,1.93,4.53,0,2.47-1.52,4.06-3.79,4.84v.1c2.67.78,4.5,3.01,4.5,5.99,0,2.27-.71,3.82-2.13,5.04-1.39,1.22-3.52,1.93-6.09,1.93h-11.1v-24.19ZM46.51,48.03c2.13,0,3.59-1.01,3.59-2.91,0-1.79-1.32-2.84-3.48-2.84h-5.41v5.75h5.31ZM41.2,58.41h5.65c2.37,0,3.79-1.32,3.79-3.28,0-2.3-1.69-3.49-3.92-3.49h-5.51v6.77Z"/>
          <path class="cls-1" d="M59.88,38.28h4.6v24.19h-4.6v-24.19Z"/>
          <path class="cls-1" d="M79.61,60.55h-.07c-.88,1.32-2.13,2.33-5.11,2.33-3.55,0-6.06-1.86-6.06-5.31,0-3.82,3.11-5.04,6.97-5.58,2.88-.41,4.19-.64,4.19-1.96,0-1.25-.98-2.06-2.91-2.06-2.17,0-3.22.78-3.35,2.44h-4.09c.14-3.04,2.4-5.72,7.48-5.72s7.31,2.33,7.31,6.39v8.83c0,1.32.2,2.1.61,2.4v.17h-4.43c-.27-.34-.44-1.15-.54-1.93ZM79.64,56.35v-2.6c-.81.47-2.06.74-3.21,1.01-2.4.54-3.59,1.08-3.59,2.71s1.08,2.2,2.71,2.2c2.64,0,4.09-1.62,4.09-3.32Z"/>
          <path class="cls-1" d="M88.95,38.28h10.83c2.6,0,4.6.64,5.85,1.76,1.32,1.18,1.93,2.64,1.93,4.53,0,2.47-1.52,4.06-3.79,4.84v.1c2.67.78,4.5,3.01,4.5,5.99,0,2.27-.71,3.82-2.13,5.04-1.39,1.22-3.52,1.93-6.09,1.93h-11.1v-24.19ZM99.16,48.03c2.13,0,3.59-1.01,3.59-2.91,0-1.79-1.32-2.84-3.48-2.84h-5.41v5.75h5.31ZM93.85,58.41h5.65c2.37,0,3.79-1.32,3.79-3.28,0-2.3-1.69-3.49-3.92-3.49h-5.51v6.77Z"/>
          <path class="cls-1" d="M112.53,38.28h4.6v24.19h-4.6v-24.19Z"/>
          <path class="cls-1" d="M132.26,60.55h-.07c-.88,1.32-2.13,2.33-5.11,2.33-3.55,0-6.06-1.86-6.06-5.31,0-3.82,3.11-5.04,6.97-5.58,2.88-.41,4.19-.64,4.19-1.96,0-1.25-.98-2.06-2.91-2.06-2.17,0-3.21.78-3.35,2.44h-4.09c.14-3.04,2.4-5.72,7.48-5.72s7.31,2.33,7.31,6.39v8.83c0,1.32.2,2.1.61,2.4v.17h-4.43c-.27-.34-.44-1.15-.54-1.93ZM132.29,56.35v-2.6c-.81.47-2.06.74-3.21,1.01-2.4.54-3.59,1.08-3.59,2.71s1.08,2.2,2.71,2.2c2.64,0,4.09-1.62,4.09-3.32Z"/>
          <path class="cls-1" d="M141.6,38.28h4.9v20.1h11.37v4.09h-16.27v-24.19Z"/>
          <path class="cls-1" d="M172.39,60.55h-.07c-.88,1.32-2.13,2.33-5.11,2.33-3.55,0-6.06-1.86-6.06-5.31,0-3.82,3.11-5.04,6.97-5.58,2.88-.41,4.19-.64,4.19-1.96,0-1.25-.98-2.06-2.91-2.06-2.17,0-3.22.78-3.35,2.44h-4.09c.14-3.04,2.4-5.72,7.48-5.72s7.31,2.33,7.31,6.39v8.83c0,1.32.2,2.1.61,2.4v.17h-4.43c-.27-.34-.44-1.15-.54-1.93ZM172.42,56.35v-2.6c-.81.47-2.06.74-3.21,1.01-2.4.54-3.59,1.08-3.59,2.71s1.08,2.2,2.71,2.2c2.64,0,4.09-1.62,4.09-3.32Z"/>
          <path class="cls-1" d="M185.86,60.31h-.07v2.17h-4.43v-24.19h4.6v8.93h.1c.95-1.45,2.44-2.57,4.84-2.57,4.36,0,7.48,3.76,7.48,9.17s-2.98,9.17-7.34,9.17c-2.44,0-4.16-1.05-5.18-2.67ZM193.7,53.81c0-3.21-1.28-5.45-3.86-5.45-2.91,0-3.99,2.33-3.99,5.55s1.59,5.21,4.16,5.21c2.37,0,3.69-1.96,3.69-5.31Z"/>
          <path class="cls-1" d="M209.95,38.28h4.9v20.1h11.37v4.09h-16.27v-24.19Z"/>
          <path class="cls-1" d="M225.92,38.28h19.45v4.13h-7.27v20.06h-4.91v-20.06h-7.27v-4.13Z"/>
          <path class="cls-1" d="M249.54,38.28h9.44c6.46,0,10.62,5.21,10.62,12.35,0,3.92-1.32,7.37-3.86,9.51-1.79,1.49-4.13,2.33-7.17,2.33h-9.03v-24.19ZM258.23,58.24c4.6,0,6.4-2.81,6.4-7.61s-2.1-8.15-6.26-8.15h-3.92v15.77h3.79Z"/>
          <path class="cls-1" d="M279.28,38.28h5.08l8.53,24.19h-5.11l-1.62-5.14h-8.73l-1.59,5.14h-4.97l8.42-24.19ZM278.57,53.58h6.39l-2.17-6.97c-.41-1.28-.98-3.72-.98-3.72h-.07s-.61,2.44-1.01,3.72l-2.17,6.97Z"/>
          <path class="cls-1" d="M377.04,38.28h5.08l8.53,24.19h-5.11l-1.62-5.14h-8.73l-1.59,5.14h-4.97l8.42-24.19ZM376.33,53.58h6.39l-2.17-6.97c-.41-1.28-.98-3.72-.98-3.72h-.07s-.61,2.44-1.01,3.72l-2.17,6.97Z"/>
          <path class="cls-1" d="M394.06,38.28h4.6v24.19h-4.6v-24.19Z"/>
          <path class="cls-1" d="M403.47,38.28h4.6v24.19h-4.6v-24.19Z"/>
          <path class="cls-1" d="M420.56,38.28h11.1c4.67,0,7.78,2.71,7.78,6.73,0,2.84-1.32,5.01-4.43,5.85v.1c2.23.64,3.38,1.93,3.69,4.87.34,3.42.2,6.02,1.05,6.39v.24h-4.7c-.61-.27-.68-2.98-.88-5.58-.2-2.64-1.69-4.13-4.74-4.13h-3.96v9.71h-4.91v-24.19ZM425.46,48.97h5.21c2.67,0,3.99-1.39,3.99-3.32s-1.25-3.42-3.86-3.42h-5.35v6.73Z"/>
          <path class="cls-1" d="M443.9,38.28h4.6v4.13h-4.6v-4.13ZM443.9,45.12h4.6v17.36h-4.6v-17.36Z"/>
          <path class="cls-1" d="M452.7,62.98h4.57c.37,1.08,1.35,1.93,3.48,1.93,2.6,0,3.86-1.25,3.86-3.62v-1.89h-.1c-1.01,1.15-2.33,2.03-4.53,2.03-3.86,0-7.65-3.04-7.65-8.29s3.11-8.49,7.51-8.49c2.17,0,3.76.85,4.8,2.3h.07v-1.83h4.43v16.04c0,2.44-.78,4.09-2.06,5.28-1.46,1.35-3.69,1.96-6.26,1.96-4.74,0-7.65-2.03-8.12-5.41ZM464.85,53.03c0-2.54-1.35-4.7-4.13-4.7-2.33,0-3.89,1.83-3.89,4.74s1.56,4.67,3.92,4.67c2.91,0,4.09-2.13,4.09-4.7Z"/>
          <path class="cls-1" d="M478.42,47.38h.1c1.25-1.83,2.67-2.74,5.04-2.74,3.59,0,5.99,2.71,5.99,6.5v11.33h-4.6v-10.66c0-1.86-1.08-3.18-3.01-3.18-2.03,0-3.52,1.62-3.52,3.99v9.85h-4.6v-24.19h4.6v9.1Z"/>
          <path class="cls-1" d="M492.73,45.12h2.4v-5.41h4.5v5.41h2.98v3.04h-2.98v9.2c0,1.29.71,1.73,1.73,1.73.58,0,1.35-.03,1.35-.03v3.38s-1.05.07-2.88.07c-2.23,0-4.7-.88-4.7-4.16v-10.18h-2.4v-3.04Z"/>
          <path class="cls-1" d="M505.76,56.86h4.26c.31,2,1.73,2.88,3.79,2.88s3.18-.78,3.18-2c0-1.66-2.2-1.83-4.57-2.3-3.11-.61-6.16-1.45-6.16-5.24s3.11-5.55,7.07-5.55c4.57,0,7.1,2.27,7.44,5.75h-4.16c-.2-1.86-1.39-2.54-3.35-2.54-1.79,0-2.98.68-2.98,1.93,0,1.49,2.3,1.62,4.77,2.13,2.91.61,6.12,1.42,6.12,5.48,0,3.49-2.98,5.58-7.31,5.58-5.04,0-7.85-2.44-8.12-6.12Z"/>
          <path class="cls-1" d="M532.69,38.28h11.1c4.67,0,7.78,2.71,7.78,6.73,0,2.84-1.32,5.01-4.43,5.85v.1c2.23.64,3.38,1.93,3.69,4.87.34,3.42.2,6.02,1.05,6.39v.24h-4.7c-.61-.27-.68-2.98-.88-5.58-.2-2.64-1.69-4.13-4.74-4.13h-3.96v9.71h-4.91v-24.19ZM537.6,48.97h5.21c2.67,0,3.99-1.39,3.99-3.32s-1.25-3.42-3.86-3.42h-5.35v6.73Z"/>
          <path class="cls-1" d="M555.03,53.78c0-5.14,3.48-9.13,8.56-9.13,5.58,0,8.56,4.26,8.56,10.45h-12.59c.34,2.67,1.83,4.33,4.43,4.33,1.79,0,2.84-.81,3.35-2.13h4.53c-.64,3.08-3.38,5.68-7.85,5.68-5.75,0-9-4.03-9-9.2ZM559.63,51.92h7.71c-.14-2.2-1.59-3.72-3.69-3.72-2.44,0-3.62,1.46-4.03,3.72Z"/>
          <path class="cls-1" d="M574.89,56.86h4.26c.31,2,1.73,2.88,3.79,2.88s3.18-.78,3.18-2c0-1.66-2.2-1.83-4.57-2.3-3.11-.61-6.16-1.45-6.16-5.24s3.11-5.55,7.07-5.55c4.57,0,7.1,2.27,7.44,5.75h-4.16c-.2-1.86-1.39-2.54-3.35-2.54-1.79,0-2.98.68-2.98,1.93,0,1.49,2.3,1.62,4.77,2.13,2.91.61,6.12,1.42,6.12,5.48,0,3.49-2.98,5.58-7.31,5.58-5.04,0-7.85-2.44-8.12-6.12Z"/>
          <path class="cls-1" d="M593.4,53.78c0-5.14,3.48-9.13,8.56-9.13,5.58,0,8.56,4.26,8.56,10.45h-12.59c.34,2.67,1.83,4.33,4.43,4.33,1.79,0,2.84-.81,3.35-2.13h4.53c-.64,3.08-3.38,5.68-7.85,5.68-5.75,0-9-4.03-9-9.2ZM598,51.92h7.71c-.14-2.2-1.59-3.72-3.69-3.72-2.44,0-3.62,1.46-4.03,3.72Z"/>
          <path class="cls-1" d="M618.77,47.89h.1c1.05-1.96,2.23-2.98,4.26-2.98.51,0,.81.03,1.08.14v4.03h-.1c-3.01-.31-5.18,1.28-5.18,4.94v8.46h-4.6v-17.36h4.43v2.77Z"/>
          <path class="cls-1" d="M626.83,45.12h4.67l2.77,9c.51,1.66.78,2.77.78,2.77h.07s.24-1.12.74-2.77l2.84-9h4.6l-6.05,17.36h-4.4l-6.02-17.36Z"/>
          <path class="cls-1" d="M645.2,53.78c0-5.14,3.48-9.13,8.56-9.13,5.58,0,8.56,4.26,8.56,10.45h-12.59c.34,2.67,1.83,4.33,4.43,4.33,1.79,0,2.84-.81,3.35-2.13h4.53c-.64,3.08-3.38,5.68-7.85,5.68-5.75,0-9-4.03-9-9.2ZM649.8,51.92h7.71c-.14-2.2-1.59-3.72-3.69-3.72-2.44,0-3.62,1.46-4.03,3.72Z"/>
          <path class="cls-1" d="M665.3,53.81c0-5.41,3.08-9.17,7.41-9.17,2.44,0,3.96,1.12,4.91,2.57h.1v-8.93h4.6v24.19h-4.43v-2.27h-.07c-1.01,1.66-2.74,2.77-5.18,2.77-4.36,0-7.34-3.55-7.34-9.17ZM677.82,53.91c0-3.32-1.08-5.55-4.03-5.55-2.54,0-3.82,2.23-3.82,5.45s1.32,5.31,3.69,5.31c2.74,0,4.16-2.03,4.16-5.21Z"/>
        </g>
        <g>
          <path class="cls-1" d="M309.67,35.18v29.41h42.04v-29.41h-42.04ZM330.69,62.47l-18-12.59,18-12.59,17.57,12.59-17.57,12.59Z"/>
          <circle class="cls-1" cx="330.69" cy="49.89" r="7.7"/>
        </g>
      </g>
    </g>
  </g>
</svg>