<?xml version="1.0" encoding="UTF-8"?>
<svg xmlns="http://www.w3.org/2000/svg" version="1.1" viewBox="0 0 399.35 100">
  <defs>
    <style>
      .cls-1 {
        fill: #0049ff;
      }
    </style>
  </defs>
  <!-- Generator: Adobe Illustrator 28.7.1, SVG Export Plug-In . SVG Version: 1.2.0 Build 142)  -->
  <g>
    <g id="Camada_1">
      <g id="qrXOHB.tif">
        <g>
          <path d="M23.57-126.17c0-10.64,0-21.28,0-31.92.07-.41.14-.83.22-1.24,1.02-5.44,4.1-9.24,9.2-11.34,1.33-.55,2.81-.72,4.23-1.07,10.64,0,21.28,0,31.92,0,1.11.23,2.25.37,3.32.72,6.23,2.02,10.3,7.61,10.32,14.18.03,9.81.01,19.62,0,29.43,0,3.15-.88,6.05-2.74,8.61-3.08,4.22-7.28,6.28-12.49,6.28-9.52,0-19.04,0-28.56,0-1,0-2.01-.05-2.99-.22-5.47-1-9.29-4.11-11.38-9.24-.54-1.32-.71-2.78-1.05-4.17ZM53.14-117.49s0,.02,0,.03c4.82,0,9.64.03,14.46-.02,1.2-.01,2.45-.15,3.57-.53,4.18-1.41,6.67-5.06,6.68-9.6,0-9.68,0-19.35,0-29.03,0-.78-.05-1.59-.22-2.35-1.05-4.68-4.88-7.77-9.73-7.79-9.79-.03-19.58,0-29.38-.01-1.47,0-2.89.24-4.2.89-3.83,1.9-5.78,5.01-5.78,9.3-.01,9.66,0,19.31,0,28.97,0,.65.05,1.31.14,1.96.57,4.32,4.69,8.12,9.04,8.18,5.15.08,10.29.02,15.44.02Z"/>
          <path d="M53.26-156.94c8.2.08,14.83,6.8,14.73,14.91-.11,8.19-6.78,14.78-14.88,14.7-8.2-.08-14.83-6.8-14.72-14.91.11-8.2,6.77-14.78,14.88-14.7ZM53.18-132.28c5.45,0,9.84-4.4,9.85-9.85,0-5.45-4.38-9.84-9.83-9.86-5.46-.02-9.9,4.42-9.88,9.88.02,5.46,4.42,9.84,9.86,9.84Z"/>
          <path d="M69.21-154.49c-2.04,0-3.67-1.62-3.68-3.66-.01-2.05,1.65-3.73,3.69-3.72,2.01,0,3.67,1.65,3.7,3.67.03,2.02-1.66,3.71-3.71,3.71Z"/>
        </g>
      </g>
      <g>
        <path d="M175.86-117.46h-56.21c-3.56,0-6.45-2.89-6.45-6.45v-36.46c0-3.55,2.89-6.45,6.45-6.45h56.21c3.56,0,6.45,2.89,6.45,6.45v36.46c0,3.55-2.89,6.45-6.45,6.45ZM119.64-161.8c-.79,0-1.44.65-1.44,1.44v36.46c0,.79.65,1.44,1.44,1.44h56.21c.79,0,1.44-.65,1.44-1.44v-36.46c0-.79-.65-1.44-1.44-1.44h-56.21Z"/>
        <path d="M147.75-134.13c-1.55,0-3.09-.56-4.33-1.68l-29.4-26.65,3.36-3.71,29.4,26.65c.55.5,1.38.5,1.93,0l29.4-26.64,3.36,3.71-29.4,26.65c-1.23,1.12-2.78,1.68-4.33,1.68Z"/>
      </g>
      <g>
        <g>
          <g>
            <path class="cls-1" d="M354.24,25.8v-2.08h7.89v2.08h-2.82v7.83h-2.25v-7.83h-2.82Z"/>
            <path class="cls-1" d="M362.84,23.72h2.81c.92,2.11,1.82,4.22,2.73,6.33h.03c.92-2.11,1.82-4.22,2.73-6.33h2.81v9.91h-2.29v-5.73h-.04l-2.44,5.73h-1.58l-2.44-5.73h-.04v5.73h-2.29v-9.91Z"/>
          </g>
          <g>
            <path class="cls-1" d="M96.58,24.69h26.68l6.1,6.1v12.33l-2.71,2.71,4.66,4.66v11.64l-6.61,6.61h-28.13V24.69ZM119.61,43.63l2.58-2.58v-7.68l-2.52-2.52h-15.98v12.77h15.92ZM121.12,62.57l3.02-3.02v-7.05l-3.02-2.96h-17.43v13.02h17.43Z"/>
            <path class="cls-1" d="M136.35,23.81h7.11v44.93h-7.11V23.81Z"/>
            <path class="cls-1" d="M149.12,63.14v-7.42l5.6-5.54h16.17v-4.66l-2.33-2.33h-9.88l-2.33,2.33v2.01h-6.98v-3.65l6.42-6.48h15.67l6.42,6.48v24.85h-6.48v-4.85l-5.03,4.85h-11.64l-5.6-5.6ZM165.67,63.14l5.22-5.03v-2.64h-12.77l-2.01,1.95v3.84l1.89,1.89h7.68Z"/>
            <path class="cls-1" d="M183.45,24.69h26.68l6.1,6.1v12.33l-2.71,2.71,4.66,4.66v11.64l-6.61,6.61h-28.13V24.69ZM206.48,43.63l2.58-2.58v-7.68l-2.52-2.52h-15.98v12.77h15.92ZM207.99,62.57l3.02-3.02v-7.05l-3.02-2.96h-17.43v13.02h17.43Z"/>
            <path class="cls-1" d="M223.21,23.81h7.11v44.93h-7.11V23.81Z"/>
            <path class="cls-1" d="M235.99,63.14v-7.42l5.6-5.54h16.17v-4.66l-2.33-2.33h-9.88l-2.33,2.33v2.01h-6.98v-3.65l6.42-6.48h15.67l6.42,6.48v24.85h-6.48v-4.85l-5.03,4.85h-11.64l-5.6-5.6ZM252.54,63.14l5.22-5.03v-2.64h-12.77l-2.01,1.95v3.84l1.89,1.89h7.68Z"/>
            <path class="cls-1" d="M270.09,24.62h7.3v37.82h13.26v6.23h-20.56V24.62Z"/>
            <path class="cls-1" d="M293.24,63.07v-7.42l5.6-5.54h16.17v-4.66l-2.33-2.33h-9.88l-2.33,2.33v2.01h-6.98v-3.65l6.42-6.48h15.67l6.42,6.48v24.85h-6.48v-4.85l-5.03,4.85h-11.64l-5.6-5.6ZM309.79,63.07l5.22-5.03v-2.64h-12.77l-2.01,1.95v3.84l1.89,1.89h7.68Z"/>
            <path class="cls-1" d="M327.25,62.19V23.74h7.11v18.5l5.1-4.91h11.26l6.29,6.29v18.75l-6.29,6.29h-17.05l-6.42-6.48ZM347.26,62.57l2.64-2.64v-13.84l-2.64-2.64h-6.67l-6.23,6.23v10.26l2.64,2.64h10.26Z"/>
          </g>
        </g>
        <g>
          <path class="cls-1" d="M35.11,65.08h-.08v3.58h-4.89v-33.73h4.97v14.13c1.94-3.08,4.76-4.51,8.01-4.51,6.32,0,10.37,5.44,10.37,12.35,0,7.72-4.97,12.48-10.71,12.48-3.5,0-6.24-1.81-7.67-4.3ZM41.73,64.66c3.84,0,6.58-3.25,6.58-7.67s-2.74-7.72-6.62-7.72-6.66,3.25-6.66,7.72,2.91,7.67,6.7,7.67Z"/>
          <path class="cls-1" d="M63.32,69.47l-9.19-24.25h5.48c2.15,5.74,4.17,11.43,6.32,17.58h.09c2.15-6.16,4.22-11.89,6.32-17.58h5.36l-12.44,32.72h-5.23l3.29-8.48Z"/>
        </g>
      </g>
    </g>
  </g>
</svg>