<?xml version="1.0" encoding="UTF-8"?>
<svg xmlns="http://www.w3.org/2000/svg" version="1.1" viewBox="0 0 122.8 100">
  <defs>
    <style>
      .cls-1 {
        fill: #f7f7f7;
      }
    </style>
  </defs>
  <!-- Generator: Adobe Illustrator 28.7.1, SVG Export Plug-In . SVG Version: 1.2.0 Build 142)  -->
  <g>
    <g id="Camada_1">
      <g id="qrXOHB.tif">
        <g>
          <path class="cls-1" d="M27.69,68.17c0-12.11,0-24.23,0-36.34.08-.47.16-.94.25-1.41,1.17-6.19,4.67-10.52,10.47-12.91,1.52-.62,3.2-.82,4.81-1.22,12.11,0,24.23,0,36.34,0,1.26.27,2.56.42,3.78.82,7.09,2.3,11.73,8.67,11.75,16.15.03,11.17.02,22.34,0,33.51,0,3.59-1,6.89-3.12,9.8-3.51,4.8-8.28,7.15-14.22,7.15-10.84,0-21.68,0-32.52-.01-1.14,0-2.29-.05-3.4-.25-6.23-1.13-10.57-4.67-12.95-10.52-.61-1.5-.81-3.16-1.2-4.75ZM61.35,78.05s0,.02,0,.03c5.49,0,10.97.04,16.46-.03,1.36-.02,2.78-.17,4.07-.61,4.76-1.61,7.6-5.76,7.6-10.92,0-11.02,0-22.03,0-33.05,0-.89-.05-1.81-.25-2.68-1.2-5.33-5.56-8.85-11.08-8.87-11.15-.04-22.29,0-33.44-.01-1.67,0-3.29.27-4.78,1.01-4.36,2.17-6.58,5.71-6.58,10.58-.01,10.99,0,21.99,0,32.98,0,.74.06,1.49.16,2.23.65,4.91,5.34,9.24,10.29,9.31,5.86.09,11.72.02,17.58.02Z"/>
          <path class="cls-1" d="M61.48,33.15c9.34.09,16.89,7.74,16.76,16.97-.13,9.33-7.72,16.82-16.94,16.73-9.34-.09-16.89-7.74-16.76-16.97.13-9.33,7.71-16.82,16.94-16.73ZM61.4,61.22c6.21,0,11.2-5,11.21-11.21,0-6.2-4.98-11.21-11.2-11.23-6.22-.02-11.27,5.03-11.25,11.25.02,6.22,5.03,11.2,11.23,11.2Z"/>
          <path class="cls-1" d="M79.65,35.93c-2.32,0-4.17-1.85-4.19-4.16-.01-2.33,1.88-4.24,4.2-4.24,2.29,0,4.17,1.88,4.21,4.18.03,2.3-1.89,4.22-4.22,4.22Z"/>
        </g>
      </g>
    </g>
  </g>
</svg>